<svg width="20" height="20" viewBox="0 0 20 20" fill="none" xmlns="http://www.w3.org/2000/svg">
<path fill-rule="evenodd" clip-rule="evenodd" d="M10 0C4.47715 0 0 4.47715 0 10C0 15.5228 4.47715 20 10 20C15.5228 20 20 15.5228 20 10C20 4.47715 15.5228 0 10 0ZM2 10C2 5.58172 5.58172 2 10 2C14.4183 2 18 5.58172 18 10C18 12.1298 17.1677 14.0652 15.8107 15.4988C15.3955 13.8872 14.3275 12.5377 12.9055 11.7492C13.5839 11.0324 14 10.0648 14 9C14 6.79086 12.2091 5 10 5C7.79086 5 6 6.79086 6 9C6 10.0648 6.41606 11.0324 7.09447 11.7492C5.67245 12.5377 4.60451 13.8872 4.18934 15.4988C2.83228 14.0652 2 12.1298 2 10ZM6.0006 16.9301C7.17716 17.6106 8.5431 18 10 18C11.4569 18 12.8228 17.6106 13.9994 16.9301C13.9621 14.7532 12.1858 13 10 13C7.81421 13 6.03791 14.7532 6.0006 16.9301ZM10 7C8.89543 7 8 7.89543 8 9C8 10.1046 8.89543 11 10 11C11.1046 11 12 10.1046 12 9C12 7.89543 11.1046 7 10 7Z" fill="white"/>
</svg>
