<svg width="16" height="20" viewBox="0 0 16 20" fill="none" xmlns="http://www.w3.org/2000/svg">
    <path fill-rule="evenodd" clip-rule="evenodd"
        d="M8 5C6.34315 5 5 6.34315 5 8C5 9.65685 6.34315 11 8 11C9.65685 11 11 9.65685 11 8C11 6.34315 9.65685 5 8 5ZM7 8C7 7.44772 7.44772 7 8 7C8.55228 7 9 7.44772 9 8C9 8.55228 8.55228 9 8 9C7.44772 9 7 8.55228 7 8Z"
        fill="#198155" />
    <path fill-rule="evenodd" clip-rule="evenodd"
        d="M13.2263 1.98053C10.2238 -0.660178 5.7762 -0.660177 2.7737 1.98053C-0.590119 4.93903 -0.942362 10.1211 1.98017 13.5246L7.24131 19.6515C7.43129 19.8727 7.70837 20 7.99998 20C8.2916 20 8.56868 19.8727 8.75866 19.6515L14.0198 13.5246C16.9423 10.1211 16.5901 4.93903 13.2263 1.98053ZM4.09454 3.48233C6.34176 1.50589 9.65821 1.50589 11.9054 3.48233C14.4426 5.71374 14.7151 9.64487 12.5024 12.2216L7.99998 17.465L3.49752 12.2216C1.28489 9.64487 1.55741 5.71374 4.09454 3.48233Z"
        fill="#198155" />
</svg>