<svg width="259" height="337" viewBox="0 0 259 337" fill="none" xmlns="http://www.w3.org/2000/svg">
<g clip-path="url(#clip0_2143_68547)">
<path d="M117.726 125.342L125.92 109.864" stroke="#21325B" stroke-width="2" stroke-linecap="round"/>
<path d="M131.383 134.294L143.067 124.886" stroke="#21325B" stroke-width="2" stroke-linecap="round"/>
<path d="M162.035 192.672C149.41 157.103 150.452 126.258 154.448 116.648C170.23 127.877 195.369 118.873 203.31 114.827C215.207 127.937 204.929 198.084 198.303 231.519C195.753 235.889 190.26 233.643 187.832 231.974L184.797 208.757L181.307 229.091C179.365 232.49 173.619 231.822 170.988 231.063L162.035 192.672Z" fill="#21325B"/>
<path d="M161.732 174.052L97.2402 133.536L99.2129 176.935L126.224 194.234L161.732 174.052Z" stroke="#21325B" stroke-width="2" stroke-linecap="round"/>
<path d="M165.221 234.098C167.649 234.098 170.179 231.974 170.988 230.912C175.479 232.369 178.828 231.215 179.941 230.457V235.161C177.149 238.56 168.408 239.258 164.615 237.74C162.338 236.526 163.143 234.098 165.221 234.098Z" stroke="#21325B" stroke-width="2"/>
<path d="M184.493 234.402C186.071 234.159 187.882 232.884 188.59 232.277C191.868 234.462 195.318 233.795 196.633 233.188V235.919C196.633 237.74 195.419 238.195 194.66 238.499L187.528 241.079C185.707 241.635 182.672 242.141 181.306 239.713C179.773 236.986 182.52 234.705 184.493 234.402Z" stroke="#21325B" stroke-width="2"/>
<path d="M203.158 106.287C204.251 108.714 203.613 112.803 203.158 114.068C177.301 126.086 160.417 120.694 155.207 116.496C155.812 114.205 157.635 109.667 154.325 103.446M154.325 103.446C153.987 102.53 153.48 101.662 153.082 100.714C145.256 82.0498 160.063 71.7311 162.49 68.848C163.044 68.1906 163.611 67.756 164.157 67.4823M154.325 103.446C149.347 106.177 140.487 108.909 129.258 105.419C118.029 101.928 114.084 69.6067 116.663 65.3578C118.727 61.9588 120.305 60.8498 122.126 62.1712C131.383 69.651 133.355 75.1138 137.149 84.0225C138.482 87.1518 139.729 88.7266 141.094 87.2091C146.921 78.4686 158.897 70.4161 164.157 67.4823M205.283 76.1317L199.971 67.4823C197.392 62.6264 186.102 57.194 181.003 63.3852C175.905 69.5764 169.774 68.6962 167.346 67.4823C166.768 67.1205 165.527 66.7952 164.157 67.4823M203.158 83.8707C204.17 77.6999 207.68 64.5688 213.629 61.4125C219.577 58.2562 222.986 62.9299 223.947 65.6613C226.122 71.6805 228.53 86.6325 220.761 98.2865C211.049 112.854 195.723 107.695 189.805 91.9132" stroke="#21325B" stroke-width="2" stroke-linecap="round"/>
<path d="M213.628 61.2607C212.718 58.9845 211.352 53.9769 211.655 50.942C211.828 49.2203 211.655 47.6036 213.021 47.3001C214.994 46.8616 214.896 49.5736 215.904 50.942C216.155 51.1927 216.444 51.6048 216.618 52.1201M216.618 52.1201C216.901 52.9566 216.881 54.064 215.904 55.1909M216.618 52.1201L216.967 46.3896C216.967 45.5802 217.482 43.9921 219.546 44.1135M219.85 49.728L219.546 42.7478C219.546 42.2925 219.85 41.3214 221.064 41.0786C222.581 40.7751 222.429 42.8995 222.581 43.5065M222.581 43.5065C222.702 43.9921 222.631 46.1368 222.581 47.1484M222.581 43.5065C223.441 42.9502 225.282 42.505 225.768 45.1757M225.768 45.1757C225.869 45.9851 225.859 47.7857 225.009 48.5141M225.768 45.1757C226.729 44.8722 228.499 45.2971 227.892 49.4245C227.133 54.5839 224.25 58.8327 221.671 61.8676" stroke="#21325B" stroke-width="2" stroke-linecap="round"/>
<path d="M121.974 61.8677V57.6188L123.188 54.2804C123.593 52.864 123.644 49.1211 121.367 49.1211C119.364 49.1211 119.174 51.0938 119.174 52.9147M119.174 52.9147C119.237 53.5927 119.386 54.2394 119.546 54.7356M119.174 52.9147C118.286 51.7514 118.513 49.1463 119.174 46.8449C120.002 43.9617 117.574 42.8995 116.056 43.81M116.056 43.81C114.842 44.5384 115.5 47.806 115.753 49.4246M116.056 43.81C115.472 42.7954 114.068 41.6619 112.87 41.989C112.096 42.2003 111.319 42.7948 111.201 45.1757M111.201 45.1757C111.807 46.8449 111.504 47.4519 113.021 49.4246M111.201 45.1757C109.784 45.0239 107.377 45.6916 109.076 49.5763M109.076 49.5763L111.201 53.8252M109.076 49.5763C107.71 49.9809 105.677 52.156 108.469 57.6188C111.261 63.0816 115.095 64.8519 116.663 65.0543" stroke="#21325B" stroke-width="2" stroke-linecap="round"/>
<path d="M151.61 75.7207C137.892 58.6039 142.961 45.321 147.209 40.8193C149.152 55.2655 160.664 61.0014 166.178 62.0636V67.223C164.478 66.009 155.758 72.3823 151.61 75.7207Z" fill="#21325B"/>
<path d="M211.656 54.584C206.042 62.1712 200.427 63.0817 197.847 63.8404C187.857 58.3421 182.587 61.0732 181.201 63.126L180.594 56.2975C184.843 51.9272 187.22 45.0683 187.877 42.1852C189.334 43.035 190.912 42.3369 191.519 41.8817C192.278 41.1737 193.553 38.7861 192.582 34.9014C191.61 31.0168 188.94 32.5746 187.726 33.8392L180.897 35.8119C180.047 29.2565 175.657 27.7904 173.568 27.8768C174.539 23.9922 171.393 22.9198 169.775 22.5658C168.075 25.6007 165.425 27.1687 164.312 27.8768C152.658 33.2183 144.433 30.153 140.033 25.2972C135.328 20.4413 133.659 7.39126 143.674 2.38367C146.897 0.446794 154.898 -2.08274 161.125 3.29414C175.237 -4.90009 185.165 9.71259 188.136 15.1303L191.322 19.9861C211.717 20.7145 215.399 38.8025 214.691 47.7554C211.377 45.292 211.287 51.2814 211.656 54.584Z" fill="#21325B"/>
<path d="M180.7 35.9192C180.7 40.4409 177.431 43.9617 173.568 43.9617C169.704 43.9617 166.436 40.4409 166.436 35.9192C166.436 31.3975 169.704 27.8767 173.568 27.8767C177.431 27.8767 180.7 31.3975 180.7 35.9192Z" stroke="#21325B" stroke-width="2"/>
<path d="M161.58 38.6506C161.58 43.1723 158.312 46.6931 154.448 46.6931C150.585 46.6931 147.316 43.1723 147.316 38.6506C147.316 34.1289 150.585 30.6082 154.448 30.6082C158.312 30.6082 161.58 34.1289 161.58 38.6506Z" stroke="#21325B" stroke-width="2"/>
<path d="M161.624 36.9462L166.392 36.4097" stroke="#21325B" stroke-width="2" stroke-linecap="round"/>
<path d="M165.07 41.0786C164.311 44.8722 162.005 48.332 165.525 50.0316M165.828 56.4049C165.828 55.1402 166.557 52.9451 169.47 54.2804" stroke="#21325B" stroke-width="2" stroke-linecap="round"/>
<path d="M152.779 46.4339C154.036 46.4339 155.055 45.4149 155.055 44.1578C155.055 42.9007 154.036 41.8816 152.779 41.8816C151.522 41.8816 150.503 42.9007 150.503 44.1578C150.503 45.4149 151.522 46.4339 152.779 46.4339Z" fill="#21325B"/>
<path d="M171.596 43.7025C172.853 43.7025 173.872 42.6834 173.872 41.4263C173.872 40.1692 172.853 39.1501 171.596 39.1501C170.338 39.1501 169.319 40.1692 169.319 41.4263C169.319 42.6834 170.338 43.7025 171.596 43.7025Z" fill="#21325B"/>
<path d="M189.956 36.2227C190.31 36.8296 190.806 38.2864 189.956 39.2576" stroke="#21325B" stroke-width="2" stroke-linecap="round"/>
<path d="M147.619 30.3491C145.748 36.2165 145.522 49.7889 158.754 59.1364C171.986 68.4839 182.173 55.7473 185.613 48.2107L187.889 41.9892C189.457 42.9503 192.623 43.5066 192.745 38.0438C192.866 32.581 190.671 32.2268 189.558 32.7327C188.951 32.9855 187.676 33.8556 187.434 35.3124" stroke="#21325B" stroke-width="2" stroke-linecap="round"/>
<path d="M180.852 35.6159L188.439 33.4915" stroke="#21325B" stroke-width="2" stroke-linecap="round"/>
<path d="M165.98 62.1712V66.2683M180.396 56.2532L181.155 62.93" stroke="#21325B" stroke-width="2" stroke-linecap="round"/>
<path d="M102.096 123.824L94.8125 89.833" stroke="#21325B" stroke-width="2" stroke-linecap="round"/>
<path d="M89.9564 125.19L81.0034 111.988" stroke="#21325B" stroke-width="2" stroke-linecap="round"/>
<path d="M104.676 241.123L108.664 203.945L161.125 174.962L149.16 216.692L104.676 241.123Z" stroke="#21325B" stroke-width="2" stroke-linecap="round"/>
<path d="M49.9413 206.191L43.3706 161.305L108.924 204.047L104.646 241.426L49.9413 206.191Z" stroke="#21325B" stroke-width="2" stroke-linecap="round"/>
<path d="M97.0883 133.688L43.3706 161.002L81.9138 186.191L99.2128 176.631L97.0883 133.688Z" stroke="#21325B" stroke-width="2" stroke-linecap="round"/>
<path d="M63.0045 180.867L77.0579 208.194L82.5207 203.49C80.9022 200.303 76.3581 191.732 70.2883 179.957C64.2185 168.181 68.8637 160.243 76.9062 156.449L101.944 143.551C112.111 137.757 122.076 144.512 123.947 149.469L134.418 155.994L131.99 151.897L128.5 146.158C122.126 134.474 108.68 134.484 103.217 136.558C95.9836 140.048 78.0877 147.7 67.7086 155.374C57.6346 162.822 59.9696 175.151 63.0045 180.867Z" fill="#21325B"/>
<path d="M79.3341 211.684C82.9378 211.684 85.8592 208.287 85.8592 204.097C85.8592 199.907 82.9378 196.51 79.3341 196.51C75.7304 196.51 72.8091 199.907 72.8091 204.097C72.8091 208.287 75.7304 211.684 79.3341 211.684Z" fill="#21325B"/>
<path d="M29.1064 205.766L47.9228 191.654L50.3508 206.525L103.765 241.123L29.1064 205.766Z" fill="#21325B" fill-opacity="0.3"/>
<path d="M172.354 35.8141C173.603 35.7734 176.202 36.3236 176.602 38.8468" stroke="#21325B" stroke-width="2" stroke-linecap="round"/>
<path d="M150.199 38.191C151.058 37.6186 153.247 36.7318 155.135 37.7618" stroke="#21325B" stroke-width="2" stroke-linecap="round"/>
</g>
<path d="M41.4618 281.455H44.4377L47.9959 287.889H48.138L51.6962 281.455H54.6721L49.3809 290.574V296H46.753V290.574L41.4618 281.455ZM59.1518 296.213C58.0865 296.213 57.1632 295.979 56.3819 295.51C55.6007 295.041 54.9946 294.385 54.5637 293.543C54.1376 292.7 53.9245 291.715 53.9245 290.588C53.9245 289.461 54.1376 288.474 54.5637 287.626C54.9946 286.779 55.6007 286.121 56.3819 285.652C57.1632 285.183 58.0865 284.949 59.1518 284.949C60.2172 284.949 61.1404 285.183 61.9217 285.652C62.7029 286.121 63.3066 286.779 63.7328 287.626C64.1636 288.474 64.3791 289.461 64.3791 290.588C64.3791 291.715 64.1636 292.7 63.7328 293.543C63.3066 294.385 62.7029 295.041 61.9217 295.51C61.1404 295.979 60.2172 296.213 59.1518 296.213ZM59.166 294.153C59.7437 294.153 60.2266 293.995 60.6149 293.678C61.0031 293.356 61.292 292.925 61.4814 292.385C61.6755 291.845 61.7725 291.244 61.7725 290.581C61.7725 289.913 61.6755 289.31 61.4814 288.77C61.292 288.225 61.0031 287.792 60.6149 287.47C60.2266 287.148 59.7437 286.987 59.166 286.987C58.5742 286.987 58.0817 287.148 57.6887 287.47C57.3005 287.792 57.0093 288.225 56.8152 288.77C56.6258 289.31 56.5311 289.913 56.5311 290.581C56.5311 291.244 56.6258 291.845 56.8152 292.385C57.0093 292.925 57.3005 293.356 57.6887 293.678C58.0817 293.995 58.5742 294.153 59.166 294.153ZM73.5144 291.412V285.091H76.0854V296H73.5925V294.061H73.4789C73.2327 294.672 72.8278 295.171 72.2644 295.56C71.7057 295.948 71.0167 296.142 70.1976 296.142C69.4827 296.142 68.8506 295.983 68.3013 295.666C67.7568 295.344 67.3307 294.878 67.0229 294.267C66.7151 293.652 66.5613 292.908 66.5613 292.037V285.091H69.1323V291.639C69.1323 292.33 69.3217 292.88 69.7005 293.287C70.0792 293.694 70.5764 293.898 71.1919 293.898C71.5707 293.898 71.9377 293.805 72.2928 293.621C72.6479 293.436 72.9391 293.161 73.1664 292.797C73.3984 292.428 73.5144 291.966 73.5144 291.412ZM78.7292 296V285.091H81.2221V286.909H81.3358C81.5346 286.279 81.8755 285.794 82.3585 285.453C82.8462 285.107 83.4025 284.935 84.0275 284.935C84.1696 284.935 84.3282 284.942 84.5034 284.956C84.6833 284.965 84.8324 284.982 84.9508 285.006V287.371C84.8419 287.333 84.6691 287.3 84.4324 287.271C84.2003 287.238 83.9754 287.222 83.7576 287.222C83.2889 287.222 82.8675 287.323 82.4934 287.527C82.1241 287.726 81.8329 288.003 81.6199 288.358C81.4068 288.713 81.3002 289.123 81.3002 289.587V296H78.7292ZM96.3784 296.213C95.2894 296.213 94.3542 295.974 93.573 295.496C92.7965 295.018 92.1975 294.357 91.7761 293.514C91.3594 292.667 91.1511 291.691 91.1511 290.588C91.1511 289.48 91.3642 288.502 91.7903 287.655C92.2164 286.803 92.8178 286.14 93.5943 285.666C94.3755 285.188 95.2988 284.949 96.3642 284.949C97.2496 284.949 98.0332 285.112 98.715 285.439C99.4016 285.761 99.9484 286.218 100.356 286.81C100.763 287.397 100.995 288.083 101.052 288.869H98.5943C98.4949 288.344 98.2581 287.906 97.8841 287.555C97.5147 287.2 97.0199 287.023 96.3997 287.023C95.8741 287.023 95.4125 287.165 95.0147 287.449C94.617 287.728 94.3069 288.131 94.0843 288.656C93.8665 289.182 93.7576 289.812 93.7576 290.545C93.7576 291.289 93.8665 291.928 94.0843 292.463C94.3021 292.993 94.6075 293.403 95.0005 293.692C95.3983 293.976 95.8646 294.118 96.3997 294.118C96.7785 294.118 97.117 294.047 97.4153 293.905C97.7183 293.758 97.9717 293.547 98.1752 293.273C98.3788 292.998 98.5185 292.664 98.5943 292.271H101.052C100.99 293.043 100.763 293.727 100.37 294.324C99.9769 294.916 99.4418 295.38 98.7647 295.716C98.0877 296.047 97.2922 296.213 96.3784 296.213ZM106.302 296.22C105.611 296.22 104.988 296.097 104.434 295.851C103.885 295.6 103.449 295.231 103.127 294.743C102.81 294.255 102.651 293.654 102.651 292.939C102.651 292.323 102.765 291.814 102.992 291.412C103.22 291.009 103.53 290.688 103.923 290.446C104.316 290.205 104.758 290.022 105.251 289.899C105.748 289.771 106.262 289.679 106.792 289.622C107.431 289.556 107.95 289.497 108.347 289.445C108.745 289.388 109.034 289.303 109.214 289.189C109.399 289.071 109.491 288.888 109.491 288.642V288.599C109.491 288.064 109.332 287.65 109.015 287.357C108.698 287.063 108.241 286.916 107.644 286.916C107.015 286.916 106.515 287.054 106.146 287.328C105.781 287.603 105.535 287.927 105.407 288.301L103.007 287.96C103.196 287.297 103.508 286.743 103.944 286.298C104.38 285.848 104.912 285.512 105.542 285.29C106.172 285.062 106.868 284.949 107.63 284.949C108.156 284.949 108.679 285.01 109.2 285.134C109.721 285.257 110.196 285.46 110.627 285.744C111.058 286.024 111.404 286.405 111.664 286.888C111.929 287.371 112.062 287.974 112.062 288.699V296H109.59V294.501H109.505C109.349 294.804 109.129 295.089 108.845 295.354C108.565 295.614 108.213 295.825 107.786 295.986C107.365 296.142 106.87 296.22 106.302 296.22ZM106.97 294.331C107.486 294.331 107.933 294.229 108.312 294.026C108.691 293.817 108.982 293.543 109.186 293.202C109.394 292.861 109.498 292.489 109.498 292.087V290.801C109.418 290.867 109.28 290.929 109.086 290.986C108.897 291.043 108.684 291.092 108.447 291.135C108.21 291.178 107.976 291.215 107.744 291.249C107.512 291.282 107.311 291.31 107.14 291.334C106.757 291.386 106.413 291.471 106.11 291.589C105.807 291.708 105.568 291.874 105.393 292.087C105.218 292.295 105.13 292.565 105.13 292.896C105.13 293.37 105.303 293.727 105.649 293.969C105.994 294.21 106.435 294.331 106.97 294.331ZM114.647 296V285.091H117.14V286.909H117.254C117.453 286.279 117.794 285.794 118.276 285.453C118.764 285.107 119.32 284.935 119.945 284.935C120.088 284.935 120.246 284.942 120.421 284.956C120.601 284.965 120.75 284.982 120.869 285.006V287.371C120.76 287.333 120.587 287.3 120.35 287.271C120.118 287.238 119.893 287.222 119.676 287.222C119.207 287.222 118.785 287.323 118.411 287.527C118.042 287.726 117.751 288.003 117.538 288.358C117.325 288.713 117.218 289.123 117.218 289.587V296H114.647ZM128.61 285.091V287.08H122.339V285.091H128.61ZM123.887 282.477H126.458V292.719C126.458 293.064 126.51 293.33 126.615 293.514C126.723 293.694 126.865 293.817 127.041 293.884C127.216 293.95 127.41 293.983 127.623 293.983C127.784 293.983 127.931 293.971 128.063 293.947C128.201 293.924 128.305 293.902 128.376 293.884L128.809 295.893C128.672 295.941 128.475 295.993 128.22 296.05C127.969 296.107 127.661 296.14 127.296 296.149C126.652 296.168 126.072 296.071 125.556 295.858C125.04 295.64 124.631 295.304 124.328 294.849C124.029 294.395 123.883 293.827 123.887 293.145V282.477ZM135.721 296V285.091H138.292V296H135.721ZM137.014 283.543C136.607 283.543 136.256 283.408 135.963 283.138C135.669 282.863 135.523 282.534 135.523 282.151C135.523 281.762 135.669 281.433 135.963 281.163C136.256 280.889 136.607 280.751 137.014 280.751C137.426 280.751 137.776 280.889 138.065 281.163C138.359 281.433 138.506 281.762 138.506 282.151C138.506 282.534 138.359 282.863 138.065 283.138C137.776 283.408 137.426 283.543 137.014 283.543ZM149.558 287.974L147.215 288.23C147.148 287.993 147.032 287.771 146.867 287.562C146.706 287.354 146.488 287.186 146.213 287.058C145.939 286.93 145.602 286.866 145.205 286.866C144.67 286.866 144.22 286.982 143.855 287.214C143.495 287.446 143.318 287.747 143.323 288.116C143.318 288.434 143.434 288.692 143.671 288.891C143.912 289.089 144.31 289.253 144.864 289.381L146.725 289.778C147.757 290.001 148.524 290.354 149.026 290.837C149.532 291.32 149.788 291.952 149.793 292.733C149.788 293.42 149.587 294.026 149.189 294.551C148.796 295.072 148.249 295.479 147.548 295.773C146.848 296.066 146.043 296.213 145.134 296.213C143.798 296.213 142.724 295.934 141.909 295.375C141.095 294.812 140.61 294.028 140.453 293.024L142.96 292.783C143.074 293.275 143.316 293.647 143.685 293.898C144.054 294.149 144.535 294.274 145.127 294.274C145.737 294.274 146.227 294.149 146.597 293.898C146.971 293.647 147.158 293.337 147.158 292.967C147.158 292.655 147.037 292.397 146.796 292.193C146.559 291.99 146.19 291.833 145.688 291.724L143.827 291.334C142.78 291.116 142.006 290.749 141.504 290.233C141.003 289.712 140.754 289.054 140.759 288.259C140.754 287.586 140.936 287.004 141.306 286.511C141.68 286.014 142.198 285.631 142.861 285.361C143.529 285.086 144.298 284.949 145.169 284.949C146.448 284.949 147.454 285.221 148.188 285.766C148.926 286.31 149.383 287.046 149.558 287.974ZM161.703 296.213C160.61 296.213 159.665 295.986 158.869 295.531C158.079 295.072 157.47 294.423 157.044 293.585C156.618 292.742 156.405 291.75 156.405 290.609C156.405 289.487 156.618 288.502 157.044 287.655C157.475 286.803 158.076 286.14 158.848 285.666C159.62 285.188 160.527 284.949 161.568 284.949C162.241 284.949 162.875 285.058 163.472 285.276C164.073 285.489 164.603 285.82 165.063 286.27C165.527 286.72 165.891 287.293 166.156 287.989C166.422 288.68 166.554 289.504 166.554 290.46V291.249H157.612V289.516H164.09C164.085 289.023 163.978 288.585 163.77 288.202C163.562 287.813 163.271 287.508 162.896 287.286C162.527 287.063 162.096 286.952 161.604 286.952C161.078 286.952 160.617 287.08 160.219 287.335C159.821 287.586 159.511 287.918 159.289 288.33C159.071 288.737 158.959 289.184 158.955 289.672V291.185C158.955 291.819 159.071 292.364 159.303 292.818C159.535 293.268 159.859 293.614 160.276 293.855C160.692 294.092 161.18 294.21 161.739 294.21C162.113 294.21 162.451 294.158 162.754 294.054C163.057 293.945 163.32 293.786 163.543 293.578C163.765 293.37 163.933 293.112 164.047 292.804L166.448 293.074C166.296 293.708 166.007 294.262 165.581 294.736C165.16 295.205 164.62 295.569 163.962 295.83C163.304 296.085 162.551 296.213 161.703 296.213ZM168.729 296V285.091H171.187V286.945H171.314C171.542 286.32 171.918 285.832 172.444 285.482C172.969 285.126 173.597 284.949 174.326 284.949C175.064 284.949 175.687 285.129 176.194 285.489C176.705 285.844 177.065 286.329 177.273 286.945H177.387C177.628 286.339 178.036 285.856 178.608 285.496C179.186 285.131 179.87 284.949 180.661 284.949C181.665 284.949 182.484 285.266 183.118 285.901C183.753 286.535 184.07 287.461 184.07 288.678V296H181.492V289.075C181.492 288.398 181.312 287.903 180.952 287.591C180.592 287.274 180.152 287.115 179.631 287.115C179.011 287.115 178.526 287.309 178.175 287.697C177.83 288.081 177.657 288.58 177.657 289.196V296H175.135V288.969C175.135 288.405 174.965 287.955 174.624 287.619C174.288 287.283 173.848 287.115 173.303 287.115C172.934 287.115 172.598 287.21 172.295 287.399C171.992 287.584 171.75 287.847 171.57 288.188C171.39 288.524 171.3 288.917 171.3 289.366V296H168.729ZM186.678 300.091V285.091H189.207V286.895H189.356C189.489 286.63 189.676 286.348 189.917 286.05C190.159 285.747 190.485 285.489 190.897 285.276C191.309 285.058 191.835 284.949 192.474 284.949C193.317 284.949 194.077 285.164 194.754 285.595C195.436 286.021 195.975 286.653 196.373 287.491C196.776 288.325 196.977 289.348 196.977 290.56C196.977 291.758 196.78 292.776 196.387 293.614C195.994 294.452 195.459 295.091 194.782 295.531C194.105 295.972 193.338 296.192 192.481 296.192C191.856 296.192 191.338 296.088 190.926 295.879C190.514 295.671 190.182 295.42 189.931 295.126C189.685 294.828 189.493 294.546 189.356 294.281H189.249V300.091H186.678ZM189.2 290.545C189.2 291.251 189.299 291.869 189.498 292.399C189.702 292.929 189.993 293.344 190.372 293.642C190.755 293.936 191.219 294.082 191.764 294.082C192.332 294.082 192.808 293.931 193.191 293.628C193.575 293.32 193.864 292.901 194.058 292.371C194.257 291.836 194.356 291.227 194.356 290.545C194.356 289.868 194.259 289.267 194.065 288.741C193.871 288.216 193.582 287.804 193.198 287.506C192.815 287.207 192.337 287.058 191.764 287.058C191.214 287.058 190.748 287.203 190.365 287.491C189.981 287.78 189.69 288.185 189.491 288.706C189.297 289.227 189.2 289.84 189.2 290.545ZM204.626 285.091V287.08H198.355V285.091H204.626ZM199.903 282.477H202.474V292.719C202.474 293.064 202.526 293.33 202.63 293.514C202.739 293.694 202.881 293.817 203.056 293.884C203.231 293.95 203.426 293.983 203.639 293.983C203.8 293.983 203.946 293.971 204.079 293.947C204.216 293.924 204.32 293.902 204.392 293.884L204.825 295.893C204.687 295.941 204.491 295.993 204.235 296.05C203.984 296.107 203.677 296.14 203.312 296.149C202.668 296.168 202.088 296.071 201.572 295.858C201.056 295.64 200.646 295.304 200.343 294.849C200.045 294.395 199.898 293.827 199.903 293.145V282.477ZM208.374 300.091C208.024 300.091 207.699 300.063 207.401 300.006C207.108 299.954 206.873 299.892 206.698 299.821L207.295 297.818C207.669 297.927 208.002 297.979 208.296 297.974C208.59 297.97 208.848 297.877 209.07 297.697C209.297 297.522 209.489 297.229 209.645 296.817L209.866 296.227L205.91 285.091H208.637L211.151 293.33H211.265L213.786 285.091H216.52L212.153 297.321C211.949 297.899 211.679 298.393 211.343 298.805C211.007 299.222 210.595 299.539 210.107 299.757C209.624 299.98 209.046 300.091 208.374 300.091Z" fill="#72777A"/>
<path d="M12.772 302.818H14.1839L17.0078 307.571H17.1271L19.951 302.818H21.3629L17.6839 308.804V313H16.451V308.804L12.772 302.818ZM24.8207 313.159C24.1313 313.159 23.5264 312.995 23.006 312.667C22.489 312.339 22.0846 311.88 21.793 311.29C21.5046 310.7 21.3604 310.01 21.3604 309.222C21.3604 308.426 21.5046 307.732 21.793 307.138C22.0846 306.545 22.489 306.085 23.006 305.756C23.5264 305.428 24.1313 305.264 24.8207 305.264C25.5101 305.264 26.1133 305.428 26.6303 305.756C27.1507 306.085 27.555 306.545 27.8434 307.138C28.1351 307.732 28.2809 308.426 28.2809 309.222C28.2809 310.01 28.1351 310.7 27.8434 311.29C27.555 311.88 27.1507 312.339 26.6303 312.667C26.1133 312.995 25.5101 313.159 24.8207 313.159ZM24.8207 312.105C25.3443 312.105 25.7752 311.971 26.1133 311.702C26.4513 311.434 26.7016 311.081 26.864 310.643C27.0264 310.206 27.1076 309.732 27.1076 309.222C27.1076 308.711 27.0264 308.236 26.864 307.795C26.7016 307.354 26.4513 306.998 26.1133 306.726C25.7752 306.454 25.3443 306.318 24.8207 306.318C24.297 306.318 23.8661 306.454 23.5281 306.726C23.19 306.998 22.9397 307.354 22.7773 307.795C22.6149 308.236 22.5337 308.711 22.5337 309.222C22.5337 309.732 22.6149 310.206 22.7773 310.643C22.9397 311.081 23.19 311.434 23.5281 311.702C23.8661 311.971 24.297 312.105 24.8207 312.105ZM34.8844 309.878V305.364H36.0577V313H34.8844V311.707H34.8049C34.6259 312.095 34.3475 312.425 33.9696 312.697C33.5918 312.965 33.1145 313.099 32.5378 313.099C32.0605 313.099 31.6363 312.995 31.2651 312.786C30.8939 312.574 30.6022 312.256 30.3901 311.832C30.178 311.404 30.0719 310.866 30.0719 310.216V305.364H31.2452V310.136C31.2452 310.693 31.401 311.137 31.7125 311.469C32.0274 311.8 32.4284 311.966 32.9157 311.966C33.2073 311.966 33.504 311.891 33.8056 311.742C34.1105 311.593 34.3657 311.364 34.5712 311.056C34.78 310.748 34.8844 310.355 34.8844 309.878ZM43.3175 308.406V313H42.1442V302.818H43.3175V306.557H43.4169C43.5959 306.162 43.8643 305.849 44.2223 305.617C44.5836 305.382 45.0642 305.264 45.6641 305.264C46.1844 305.264 46.6402 305.369 47.0312 305.577C47.4223 305.783 47.7256 306.099 47.9411 306.527C48.1598 306.951 48.2692 307.491 48.2692 308.148V313H47.0959V308.227C47.0959 307.621 46.9384 307.152 46.6236 306.82C46.312 306.486 45.8795 306.318 45.326 306.318C44.9415 306.318 44.5968 306.399 44.2919 306.562C43.9903 306.724 43.7517 306.961 43.576 307.273C43.4036 307.584 43.3175 307.962 43.3175 308.406ZM52.6628 313.179C52.1789 313.179 51.7398 313.088 51.3453 312.906C50.9509 312.72 50.6377 312.453 50.4057 312.105C50.1737 311.754 50.0577 311.33 50.0577 310.832C50.0577 310.395 50.1439 310.04 50.3162 309.768C50.4886 309.493 50.7189 309.278 51.0073 309.122C51.2956 308.966 51.6138 308.85 51.9618 308.774C52.3132 308.695 52.6661 308.632 53.0208 308.585C53.4848 308.526 53.861 308.481 54.1493 308.451C54.441 308.418 54.6531 308.363 54.7857 308.287C54.9216 308.211 54.9895 308.078 54.9895 307.889V307.849C54.9895 307.359 54.8553 306.978 54.5868 306.706C54.3217 306.434 53.919 306.298 53.3787 306.298C52.8186 306.298 52.3794 306.421 52.0613 306.666C51.7431 306.911 51.5194 307.173 51.3901 307.452L50.2765 307.054C50.4753 306.59 50.7405 306.229 51.0719 305.97C51.4067 305.708 51.7712 305.526 52.1657 305.423C52.5634 305.317 52.9545 305.264 53.339 305.264C53.5842 305.264 53.8659 305.294 54.1841 305.354C54.5056 305.41 54.8155 305.528 55.1138 305.707C55.4154 305.886 55.6657 306.156 55.8645 306.517C56.0634 306.878 56.1628 307.362 56.1628 307.969V313H54.9895V311.966H54.9299C54.8503 312.132 54.7177 312.309 54.5321 312.498C54.3465 312.687 54.0996 312.848 53.7914 312.98C53.4831 313.113 53.1069 313.179 52.6628 313.179ZM52.8418 312.125C53.3058 312.125 53.6969 312.034 54.0151 311.852C54.3366 311.669 54.5785 311.434 54.7409 311.146C54.9067 310.857 54.9895 310.554 54.9895 310.236V309.162C54.9398 309.222 54.8304 309.276 54.6614 309.326C54.4957 309.372 54.3034 309.414 54.0847 309.45C53.8693 309.483 53.6588 309.513 53.4533 309.54C53.2511 309.563 53.0871 309.583 52.9611 309.599C52.6562 309.639 52.3712 309.704 52.106 309.793C51.8442 309.879 51.632 310.01 51.4696 310.186C51.3105 310.358 51.231 310.594 51.231 310.892C51.231 311.3 51.3818 311.608 51.6834 311.817C51.9883 312.022 52.3745 312.125 52.8418 312.125ZM64.2752 305.364L61.4513 313H60.2582L57.4343 305.364H58.707L60.815 311.449H60.8945L63.0025 305.364H64.2752ZM68.7521 313.159C68.0163 313.159 67.3816 312.997 66.848 312.672C66.3177 312.344 65.9084 311.886 65.62 311.3C65.335 310.71 65.1925 310.024 65.1925 309.241C65.1925 308.459 65.335 307.77 65.62 307.173C65.9084 306.573 66.3094 306.106 66.8232 305.771C67.3402 305.433 67.9434 305.264 68.6328 305.264C69.0305 305.264 69.4233 305.33 69.8111 305.463C70.1989 305.596 70.5518 305.811 70.87 306.109C71.1882 306.404 71.4418 306.795 71.6307 307.283C71.8196 307.77 71.9141 308.37 71.9141 309.082V309.58H66.0277V308.565H70.7209C70.7209 308.134 70.6347 307.75 70.4624 307.412C70.2933 307.074 70.0514 306.807 69.7365 306.612C69.425 306.416 69.0571 306.318 68.6328 306.318C68.1655 306.318 67.7611 306.434 67.4197 306.666C67.0817 306.895 66.8215 307.193 66.6392 307.561C66.4569 307.929 66.3658 308.323 66.3658 308.744V309.42C66.3658 309.997 66.4652 310.486 66.6641 310.887C66.8662 311.285 67.1463 311.588 67.5043 311.797C67.8622 312.002 68.2782 312.105 68.7521 312.105C69.0604 312.105 69.3388 312.062 69.5874 311.976C69.8393 311.886 70.0563 311.754 70.2386 311.578C70.4209 311.399 70.5618 311.177 70.6612 310.912L71.7947 311.23C71.6754 311.615 71.4749 311.953 71.1932 312.244C70.9115 312.533 70.5634 312.758 70.1491 312.92C69.7348 313.08 69.2692 313.159 68.7521 313.159ZM78.8097 308.406V313H77.6364V305.364H78.7699V306.557H78.8693C79.0483 306.169 79.3201 305.857 79.6847 305.622C80.0492 305.384 80.5199 305.264 81.0966 305.264C81.6136 305.264 82.0661 305.37 82.4538 305.582C82.8416 305.791 83.1432 306.109 83.3587 306.537C83.5741 306.961 83.6818 307.498 83.6818 308.148V313H82.5085V308.227C82.5085 307.627 82.3527 307.16 82.0412 306.825C81.7296 306.487 81.3021 306.318 80.7585 306.318C80.384 306.318 80.0492 306.399 79.7543 306.562C79.4626 306.724 79.2322 306.961 79.0632 307.273C78.8942 307.584 78.8097 307.962 78.8097 308.406ZM88.9281 313.159C88.2387 313.159 87.6338 312.995 87.1135 312.667C86.5964 312.339 86.1921 311.88 85.9004 311.29C85.612 310.7 85.4679 310.01 85.4679 309.222C85.4679 308.426 85.612 307.732 85.9004 307.138C86.1921 306.545 86.5964 306.085 87.1135 305.756C87.6338 305.428 88.2387 305.264 88.9281 305.264C89.6175 305.264 90.2207 305.428 90.7377 305.756C91.2581 306.085 91.6625 306.545 91.9508 307.138C92.2425 307.732 92.3883 308.426 92.3883 309.222C92.3883 310.01 92.2425 310.7 91.9508 311.29C91.6625 311.88 91.2581 312.339 90.7377 312.667C90.2207 312.995 89.6175 313.159 88.9281 313.159ZM88.9281 312.105C89.4518 312.105 89.8826 311.971 90.2207 311.702C90.5588 311.434 90.809 311.081 90.9714 310.643C91.1338 310.206 91.215 309.732 91.215 309.222C91.215 308.711 91.1338 308.236 90.9714 307.795C90.809 307.354 90.5588 306.998 90.2207 306.726C89.8826 306.454 89.4518 306.318 88.9281 306.318C88.4044 306.318 87.9735 306.454 87.6355 306.726C87.2974 306.998 87.0472 307.354 86.8848 307.795C86.7224 308.236 86.6412 308.711 86.6412 309.222C86.6412 309.732 86.7224 310.206 86.8848 310.643C87.0472 311.081 87.2974 311.434 87.6355 311.702C87.9735 311.971 88.4044 312.105 88.9281 312.105ZM98.1168 313V305.364H99.2901V313H98.1168ZM98.7134 304.091C98.4847 304.091 98.2875 304.013 98.1218 303.857C97.9594 303.701 97.8782 303.514 97.8782 303.295C97.8782 303.077 97.9594 302.889 98.1218 302.734C98.2875 302.578 98.4847 302.5 98.7134 302.5C98.9421 302.5 99.1377 302.578 99.3001 302.734C99.4658 302.889 99.5487 303.077 99.5487 303.295C99.5487 303.514 99.4658 303.701 99.3001 303.857C99.1377 304.013 98.9421 304.091 98.7134 304.091ZM104.76 305.364V306.358H100.803V305.364H104.76ZM101.956 303.534H103.129V310.812C103.129 311.144 103.177 311.393 103.274 311.558C103.373 311.721 103.499 311.83 103.651 311.886C103.807 311.939 103.971 311.966 104.144 311.966C104.273 311.966 104.379 311.959 104.462 311.946C104.545 311.929 104.611 311.916 104.661 311.906L104.899 312.96C104.82 312.99 104.709 313.02 104.566 313.05C104.424 313.083 104.243 313.099 104.024 313.099C103.693 313.099 103.368 313.028 103.05 312.886C102.735 312.743 102.473 312.526 102.264 312.234C102.059 311.943 101.956 311.575 101.956 311.131V303.534ZM109.645 313.159C108.909 313.159 108.274 312.997 107.741 312.672C107.21 312.344 106.801 311.886 106.513 311.3C106.228 310.71 106.085 310.024 106.085 309.241C106.085 308.459 106.228 307.77 106.513 307.173C106.801 306.573 107.202 306.106 107.716 305.771C108.233 305.433 108.836 305.264 109.525 305.264C109.923 305.264 110.316 305.33 110.704 305.463C111.091 305.596 111.444 305.811 111.763 306.109C112.081 306.404 112.334 306.795 112.523 307.283C112.712 307.77 112.807 308.37 112.807 309.082V309.58H106.92V308.565H111.613C111.613 308.134 111.527 307.75 111.355 307.412C111.186 307.074 110.944 306.807 110.629 306.612C110.318 306.416 109.95 306.318 109.525 306.318C109.058 306.318 108.654 306.434 108.312 306.666C107.974 306.895 107.714 307.193 107.532 307.561C107.349 307.929 107.258 308.323 107.258 308.744V309.42C107.258 309.997 107.358 310.486 107.557 310.887C107.759 311.285 108.039 311.588 108.397 311.797C108.755 312.002 109.171 312.105 109.645 312.105C109.953 312.105 110.231 312.062 110.48 311.976C110.732 311.886 110.949 311.754 111.131 311.578C111.314 311.399 111.454 311.177 111.554 310.912L112.687 311.23C112.568 311.615 112.367 311.953 112.086 312.244C111.804 312.533 111.456 312.758 111.042 312.92C110.627 313.08 110.162 313.159 109.645 313.159ZM114.591 313V305.364H115.725V306.557H115.824C115.983 306.149 116.24 305.833 116.595 305.607C116.95 305.379 117.376 305.264 117.873 305.264C118.376 305.264 118.796 305.379 119.131 305.607C119.469 305.833 119.732 306.149 119.921 306.557H120.001C120.196 306.162 120.489 305.849 120.881 305.617C121.272 305.382 121.741 305.264 122.287 305.264C122.97 305.264 123.529 305.478 123.963 305.906C124.397 306.33 124.614 306.991 124.614 307.889V313H123.441V307.889C123.441 307.326 123.287 306.923 122.979 306.681C122.67 306.439 122.307 306.318 121.89 306.318C121.353 306.318 120.937 306.481 120.642 306.805C120.347 307.127 120.199 307.535 120.199 308.028V313H119.006V307.77C119.006 307.336 118.865 306.986 118.584 306.721C118.302 306.452 117.939 306.318 117.495 306.318C117.19 306.318 116.905 306.399 116.64 306.562C116.378 306.724 116.166 306.95 116.003 307.238C115.844 307.523 115.765 307.853 115.765 308.227V313H114.591ZM132.169 307.074L131.115 307.372C131.048 307.196 130.95 307.026 130.821 306.86C130.695 306.691 130.523 306.552 130.304 306.442C130.085 306.333 129.805 306.278 129.464 306.278C128.997 306.278 128.607 306.386 128.296 306.602C127.987 306.814 127.833 307.084 127.833 307.412C127.833 307.704 127.939 307.934 128.151 308.103C128.364 308.272 128.695 308.413 129.146 308.526L130.279 308.804C130.962 308.97 131.471 309.223 131.806 309.565C132.14 309.903 132.308 310.339 132.308 310.872C132.308 311.31 132.182 311.701 131.93 312.045C131.681 312.39 131.333 312.662 130.886 312.861C130.438 313.06 129.918 313.159 129.325 313.159C128.546 313.159 127.901 312.99 127.391 312.652C126.88 312.314 126.557 311.82 126.421 311.17L127.535 310.892C127.641 311.303 127.842 311.611 128.137 311.817C128.435 312.022 128.824 312.125 129.305 312.125C129.852 312.125 130.286 312.009 130.607 311.777C130.932 311.542 131.095 311.26 131.095 310.932C131.095 310.667 131.002 310.445 130.816 310.266C130.631 310.083 130.346 309.947 129.961 309.858L128.688 309.56C127.989 309.394 127.475 309.137 127.147 308.789C126.822 308.438 126.66 307.999 126.66 307.472C126.66 307.041 126.781 306.66 127.023 306.328C127.268 305.997 127.601 305.737 128.022 305.548C128.446 305.359 128.927 305.264 129.464 305.264C130.22 305.264 130.813 305.43 131.244 305.761C131.678 306.093 131.986 306.53 132.169 307.074ZM138.011 313V305.364H139.185V313H138.011ZM138.608 304.091C138.379 304.091 138.182 304.013 138.016 303.857C137.854 303.701 137.773 303.514 137.773 303.295C137.773 303.077 137.854 302.889 138.016 302.734C138.182 302.578 138.379 302.5 138.608 302.5C138.837 302.5 139.032 302.578 139.195 302.734C139.36 302.889 139.443 303.077 139.443 303.295C139.443 303.514 139.36 303.701 139.195 303.857C139.032 304.013 138.837 304.091 138.608 304.091ZM142.507 308.406V313H141.334V305.364H142.467V306.557H142.567C142.746 306.169 143.017 305.857 143.382 305.622C143.747 305.384 144.217 305.264 144.794 305.264C145.311 305.264 145.763 305.37 146.151 305.582C146.539 305.791 146.84 306.109 147.056 306.537C147.271 306.961 147.379 307.498 147.379 308.148V313H146.206V308.227C146.206 307.627 146.05 307.16 145.738 306.825C145.427 306.487 144.999 306.318 144.456 306.318C144.081 306.318 143.747 306.399 143.452 306.562C143.16 306.724 142.93 306.961 142.76 307.273C142.591 307.584 142.507 307.962 142.507 308.406ZM154.216 315.864C154.017 315.864 153.84 315.847 153.684 315.814C153.529 315.784 153.421 315.754 153.361 315.724L153.659 314.69C153.944 314.763 154.196 314.79 154.415 314.77C154.634 314.75 154.828 314.652 154.997 314.477C155.169 314.304 155.327 314.024 155.469 313.636L155.688 313.04L152.864 305.364H154.137L156.245 311.449H156.324L158.432 305.364H159.705L156.463 314.114C156.318 314.508 156.137 314.835 155.922 315.093C155.706 315.355 155.456 315.549 155.171 315.675C154.889 315.801 154.571 315.864 154.216 315.864ZM164.082 313.159C163.393 313.159 162.788 312.995 162.268 312.667C161.751 312.339 161.346 311.88 161.055 311.29C160.766 310.7 160.622 310.01 160.622 309.222C160.622 308.426 160.766 307.732 161.055 307.138C161.346 306.545 161.751 306.085 162.268 305.756C162.788 305.428 163.393 305.264 164.082 305.264C164.772 305.264 165.375 305.428 165.892 305.756C166.412 306.085 166.817 306.545 167.105 307.138C167.397 307.732 167.543 308.426 167.543 309.222C167.543 310.01 167.397 310.7 167.105 311.29C166.817 311.88 166.412 312.339 165.892 312.667C165.375 312.995 164.772 313.159 164.082 313.159ZM164.082 312.105C164.606 312.105 165.037 311.971 165.375 311.702C165.713 311.434 165.963 311.081 166.126 310.643C166.288 310.206 166.369 309.732 166.369 309.222C166.369 308.711 166.288 308.236 166.126 307.795C165.963 307.354 165.713 306.998 165.375 306.726C165.037 306.454 164.606 306.318 164.082 306.318C163.559 306.318 163.128 306.454 162.79 306.726C162.452 306.998 162.201 307.354 162.039 307.795C161.877 308.236 161.795 308.711 161.795 309.222C161.795 309.732 161.877 310.206 162.039 310.643C162.201 311.081 162.452 311.434 162.79 311.702C163.128 311.971 163.559 312.105 164.082 312.105ZM174.146 309.878V305.364H175.319V313H174.146V311.707H174.067C173.888 312.095 173.609 312.425 173.231 312.697C172.854 312.965 172.376 313.099 171.8 313.099C171.322 313.099 170.898 312.995 170.527 312.786C170.156 312.574 169.864 312.256 169.652 311.832C169.44 311.404 169.334 310.866 169.334 310.216V305.364H170.507V310.136C170.507 310.693 170.663 311.137 170.974 311.469C171.289 311.8 171.69 311.966 172.177 311.966C172.469 311.966 172.766 311.891 173.067 311.742C173.372 311.593 173.627 311.364 173.833 311.056C174.042 310.748 174.146 310.355 174.146 309.878ZM177.468 313V305.364H178.602V306.517H178.681C178.821 306.139 179.073 305.833 179.437 305.597C179.802 305.362 180.213 305.244 180.67 305.244C180.756 305.244 180.864 305.246 180.993 305.249C181.123 305.253 181.22 305.258 181.287 305.264V306.457C181.247 306.447 181.156 306.433 181.013 306.413C180.874 306.389 180.726 306.378 180.571 306.378C180.199 306.378 179.868 306.456 179.576 306.612C179.288 306.764 179.059 306.976 178.89 307.248C178.725 307.516 178.642 307.823 178.642 308.168V313H177.468ZM192.024 307.074L190.97 307.372C190.904 307.196 190.806 307.026 190.677 306.86C190.551 306.691 190.378 306.552 190.16 306.442C189.941 306.333 189.661 306.278 189.319 306.278C188.852 306.278 188.463 306.386 188.151 306.602C187.843 306.814 187.689 307.084 187.689 307.412C187.689 307.704 187.795 307.934 188.007 308.103C188.219 308.272 188.55 308.413 189.001 308.526L190.135 308.804C190.818 308.97 191.326 309.223 191.661 309.565C191.996 309.903 192.163 310.339 192.163 310.872C192.163 311.31 192.037 311.701 191.785 312.045C191.537 312.39 191.189 312.662 190.741 312.861C190.294 313.06 189.773 313.159 189.18 313.159C188.401 313.159 187.757 312.99 187.246 312.652C186.736 312.314 186.413 311.82 186.277 311.17L187.39 310.892C187.497 311.303 187.697 311.611 187.992 311.817C188.29 312.022 188.68 312.125 189.16 312.125C189.707 312.125 190.141 312.009 190.463 311.777C190.788 311.542 190.95 311.26 190.95 310.932C190.95 310.667 190.857 310.445 190.672 310.266C190.486 310.083 190.201 309.947 189.817 309.858L188.544 309.56C187.845 309.394 187.331 309.137 187.003 308.789C186.678 308.438 186.515 307.999 186.515 307.472C186.515 307.041 186.636 306.66 186.878 306.328C187.124 305.997 187.457 305.737 187.878 305.548C188.302 305.359 188.782 305.264 189.319 305.264C190.075 305.264 190.668 305.43 191.099 305.761C191.533 306.093 191.842 306.53 192.024 307.074ZM195.103 308.406V313H193.929V302.818H195.103V306.557H195.202C195.381 306.162 195.65 305.849 196.007 305.617C196.369 305.382 196.849 305.264 197.449 305.264C197.97 305.264 198.425 305.369 198.816 305.577C199.208 305.783 199.511 306.099 199.726 306.527C199.945 306.951 200.054 307.491 200.054 308.148V313H198.881V308.227C198.881 307.621 198.724 307.152 198.409 306.82C198.097 306.486 197.665 306.318 197.111 306.318C196.727 306.318 196.382 306.399 196.077 306.562C195.775 306.724 195.537 306.961 195.361 307.273C195.189 307.584 195.103 307.962 195.103 308.406ZM205.303 313.159C204.614 313.159 204.009 312.995 203.488 312.667C202.971 312.339 202.567 311.88 202.275 311.29C201.987 310.7 201.843 310.01 201.843 309.222C201.843 308.426 201.987 307.732 202.275 307.138C202.567 306.545 202.971 306.085 203.488 305.756C204.009 305.428 204.614 305.264 205.303 305.264C205.992 305.264 206.596 305.428 207.113 305.756C207.633 306.085 208.037 306.545 208.326 307.138C208.617 307.732 208.763 308.426 208.763 309.222C208.763 310.01 208.617 310.7 208.326 311.29C208.037 311.88 207.633 312.339 207.113 312.667C206.596 312.995 205.992 313.159 205.303 313.159ZM205.303 312.105C205.827 312.105 206.258 311.971 206.596 311.702C206.934 311.434 207.184 311.081 207.346 310.643C207.509 310.206 207.59 309.732 207.59 309.222C207.59 308.711 207.509 308.236 207.346 307.795C207.184 307.354 206.934 306.998 206.596 306.726C206.258 306.454 205.827 306.318 205.303 306.318C204.779 306.318 204.349 306.454 204.01 306.726C203.672 306.998 203.422 307.354 203.26 307.795C203.097 308.236 203.016 308.711 203.016 309.222C203.016 309.732 203.097 310.206 203.26 310.643C203.422 311.081 203.672 311.434 204.01 311.702C204.349 311.971 204.779 312.105 205.303 312.105ZM210.554 315.864V305.364H211.688V306.577H211.827C211.913 306.444 212.033 306.275 212.185 306.07C212.341 305.861 212.563 305.675 212.851 305.513C213.143 305.347 213.537 305.264 214.034 305.264C214.677 305.264 215.244 305.425 215.735 305.746C216.225 306.068 216.608 306.524 216.883 307.114C217.158 307.704 217.296 308.4 217.296 309.202C217.296 310.01 217.158 310.711 216.883 311.305C216.608 311.895 216.227 312.352 215.74 312.677C215.252 312.998 214.691 313.159 214.054 313.159C213.564 313.159 213.171 313.078 212.876 312.915C212.581 312.75 212.354 312.562 212.195 312.354C212.036 312.142 211.913 311.966 211.827 311.827H211.728V315.864H210.554ZM211.708 309.182C211.708 309.759 211.792 310.267 211.961 310.708C212.13 311.146 212.377 311.489 212.702 311.737C213.027 311.982 213.425 312.105 213.895 312.105C214.386 312.105 214.795 311.976 215.123 311.717C215.455 311.455 215.703 311.104 215.869 310.663C216.038 310.219 216.123 309.725 216.123 309.182C216.123 308.645 216.04 308.161 215.874 307.73C215.712 307.296 215.465 306.953 215.133 306.701C214.805 306.446 214.392 306.318 213.895 306.318C213.418 306.318 213.017 306.439 212.692 306.681C212.367 306.92 212.122 307.254 211.956 307.685C211.791 308.113 211.708 308.612 211.708 309.182ZM219.086 315.864V305.364H220.219V306.577H220.358C220.444 306.444 220.564 306.275 220.716 306.07C220.872 305.861 221.094 305.675 221.382 305.513C221.674 305.347 222.069 305.264 222.566 305.264C223.209 305.264 223.775 305.425 224.266 305.746C224.757 306.068 225.139 306.524 225.414 307.114C225.69 307.704 225.827 308.4 225.827 309.202C225.827 310.01 225.69 310.711 225.414 311.305C225.139 311.895 224.758 312.352 224.271 312.677C223.784 312.998 223.222 313.159 222.586 313.159C222.095 313.159 221.702 313.078 221.407 312.915C221.112 312.75 220.885 312.562 220.726 312.354C220.567 312.142 220.444 311.966 220.358 311.827H220.259V315.864H219.086ZM220.239 309.182C220.239 309.759 220.324 310.267 220.493 310.708C220.662 311.146 220.908 311.489 221.233 311.737C221.558 311.982 221.956 312.105 222.426 312.105C222.917 312.105 223.326 311.976 223.654 311.717C223.986 311.455 224.234 311.104 224.4 310.663C224.569 310.219 224.654 309.725 224.654 309.182C224.654 308.645 224.571 308.161 224.405 307.73C224.243 307.296 223.996 306.953 223.664 306.701C223.336 306.446 222.924 306.318 222.426 306.318C221.949 306.318 221.548 306.439 221.223 306.681C220.899 306.92 220.653 307.254 220.488 307.685C220.322 308.113 220.239 308.612 220.239 309.182ZM227.617 313V305.364H228.79V313H227.617ZM228.213 304.091C227.985 304.091 227.788 304.013 227.622 303.857C227.459 303.701 227.378 303.514 227.378 303.295C227.378 303.077 227.459 302.889 227.622 302.734C227.788 302.578 227.985 302.5 228.213 302.5C228.442 302.5 228.638 302.578 228.8 302.734C228.966 302.889 229.049 303.077 229.049 303.295C229.049 303.514 228.966 303.701 228.8 303.857C228.638 304.013 228.442 304.091 228.213 304.091ZM232.112 308.406V313H230.939V305.364H232.073V306.557H232.172C232.351 306.169 232.623 305.857 232.987 305.622C233.352 305.384 233.823 305.264 234.399 305.264C234.916 305.264 235.369 305.37 235.757 305.582C236.144 305.791 236.446 306.109 236.661 306.537C236.877 306.961 236.985 307.498 236.985 308.148V313H235.811V308.227C235.811 307.627 235.655 307.16 235.344 306.825C235.032 306.487 234.605 306.318 234.061 306.318C233.687 306.318 233.352 306.399 233.057 306.562C232.765 306.724 232.535 306.961 232.366 307.273C232.197 307.584 232.112 307.962 232.112 308.406ZM242.211 316.023C241.644 316.023 241.157 315.95 240.749 315.804C240.342 315.661 240.002 315.473 239.73 315.237C239.462 315.005 239.248 314.757 239.089 314.491L240.023 313.835C240.129 313.974 240.264 314.134 240.426 314.312C240.589 314.495 240.811 314.652 241.092 314.785C241.377 314.921 241.75 314.989 242.211 314.989C242.827 314.989 243.336 314.839 243.737 314.541C244.138 314.243 244.339 313.776 244.339 313.139V311.588H244.239C244.153 311.727 244.031 311.9 243.871 312.105C243.716 312.307 243.49 312.488 243.195 312.647C242.904 312.803 242.509 312.881 242.012 312.881C241.396 312.881 240.842 312.735 240.352 312.443C239.864 312.152 239.478 311.727 239.193 311.17C238.911 310.614 238.771 309.937 238.771 309.142C238.771 308.36 238.908 307.679 239.183 307.099C239.458 306.515 239.841 306.065 240.332 305.746C240.822 305.425 241.389 305.264 242.032 305.264C242.529 305.264 242.924 305.347 243.215 305.513C243.51 305.675 243.736 305.861 243.891 306.07C244.05 306.275 244.173 306.444 244.259 306.577H244.379V305.364H245.512V313.219C245.512 313.875 245.363 314.409 245.065 314.82C244.77 315.234 244.372 315.537 243.871 315.729C243.374 315.925 242.821 316.023 242.211 316.023ZM242.171 311.827C242.642 311.827 243.04 311.719 243.364 311.504C243.689 311.288 243.936 310.978 244.105 310.574C244.274 310.17 244.359 309.686 244.359 309.122C244.359 308.572 244.276 308.086 244.11 307.665C243.944 307.245 243.699 306.915 243.374 306.676C243.049 306.437 242.648 306.318 242.171 306.318C241.674 306.318 241.26 306.444 240.928 306.696C240.6 306.948 240.353 307.286 240.188 307.71C240.025 308.134 239.944 308.605 239.944 309.122C239.944 309.652 240.027 310.121 240.192 310.529C240.362 310.933 240.61 311.252 240.938 311.484C241.27 311.712 241.681 311.827 242.171 311.827ZM37.9935 329.159C37.2776 329.159 36.6611 328.99 36.1441 328.652C35.627 328.314 35.2293 327.848 34.9509 327.255C34.6725 326.662 34.5333 325.984 34.5333 325.222C34.5333 324.446 34.6758 323.762 34.9608 323.168C35.2492 322.572 35.6502 322.106 36.164 321.771C36.681 321.433 37.2842 321.264 37.9736 321.264C38.5106 321.264 38.9945 321.364 39.4253 321.562C39.8562 321.761 40.2092 322.04 40.4843 322.398C40.7594 322.756 40.9301 323.173 40.9964 323.651H39.8231C39.7336 323.303 39.5347 322.994 39.2265 322.726C38.9215 322.454 38.5106 322.318 37.9935 322.318C37.5361 322.318 37.1351 322.437 36.7904 322.676C36.449 322.911 36.1822 323.245 35.99 323.675C35.801 324.103 35.7066 324.605 35.7066 325.182C35.7066 325.772 35.7994 326.286 35.985 326.723C36.1739 327.161 36.4391 327.5 36.7805 327.742C37.1251 327.984 37.5295 328.105 37.9935 328.105C38.2984 328.105 38.5752 328.052 38.8238 327.946C39.0724 327.84 39.2828 327.688 39.4552 327.489C39.6275 327.29 39.7501 327.051 39.8231 326.773H40.9964C40.9301 327.223 40.766 327.629 40.5042 327.991C40.2457 328.349 39.9026 328.634 39.4751 328.846C39.0508 329.055 38.557 329.159 37.9935 329.159ZM44.9587 329.179C44.4748 329.179 44.0357 329.088 43.6412 328.906C43.2468 328.72 42.9336 328.453 42.7016 328.105C42.4696 327.754 42.3536 327.33 42.3536 326.832C42.3536 326.395 42.4398 326.04 42.6121 325.768C42.7845 325.493 43.0148 325.278 43.3032 325.122C43.5915 324.966 43.9097 324.85 44.2577 324.774C44.609 324.695 44.962 324.632 45.3167 324.585C45.7807 324.526 46.1569 324.481 46.4452 324.451C46.7369 324.418 46.949 324.363 47.0816 324.287C47.2175 324.211 47.2854 324.078 47.2854 323.889V323.849C47.2854 323.359 47.1512 322.978 46.8827 322.706C46.6176 322.434 46.2149 322.298 45.6746 322.298C45.1145 322.298 44.6753 322.421 44.3572 322.666C44.039 322.911 43.8153 323.173 43.686 323.452L42.5724 323.054C42.7712 322.59 43.0364 322.229 43.3678 321.97C43.7026 321.708 44.0671 321.526 44.4616 321.423C44.8593 321.317 45.2504 321.264 45.6349 321.264C45.8801 321.264 46.1618 321.294 46.48 321.354C46.8015 321.41 47.1114 321.528 47.4097 321.707C47.7113 321.886 47.9616 322.156 48.1604 322.517C48.3593 322.878 48.4587 323.362 48.4587 323.969V329H47.2854V327.966H47.2258C47.1462 328.132 47.0136 328.309 46.828 328.498C46.6424 328.687 46.3955 328.848 46.0873 328.98C45.779 329.113 45.4028 329.179 44.9587 329.179ZM45.1377 328.125C45.6017 328.125 45.9928 328.034 46.311 327.852C46.6325 327.669 46.8744 327.434 47.0368 327.146C47.2026 326.857 47.2854 326.554 47.2854 326.236V325.162C47.2357 325.222 47.1263 325.276 46.9573 325.326C46.7916 325.372 46.5993 325.414 46.3806 325.45C46.1652 325.483 45.9547 325.513 45.7492 325.54C45.547 325.563 45.383 325.583 45.257 325.599C44.9521 325.639 44.6671 325.704 44.4019 325.793C44.1401 325.879 43.9279 326.01 43.7655 326.186C43.6064 326.358 43.5269 326.594 43.5269 326.892C43.5269 327.3 43.6777 327.608 43.9793 327.817C44.2842 328.022 44.6704 328.125 45.1377 328.125ZM50.6002 329V321.364H51.7338V322.517H51.8133C51.9525 322.139 52.2044 321.833 52.569 321.597C52.9336 321.362 53.3445 321.244 53.8019 321.244C53.8881 321.244 53.9958 321.246 54.1251 321.249C54.2544 321.253 54.3521 321.258 54.4184 321.264V322.457C54.3786 322.447 54.2875 322.433 54.145 322.413C54.0058 322.389 53.8583 322.378 53.7025 322.378C53.3313 322.378 52.9999 322.456 52.7082 322.612C52.4198 322.764 52.1911 322.976 52.0221 323.248C51.8564 323.516 51.7735 323.823 51.7735 324.168V329H50.6002ZM59.6088 321.364V322.358H55.6514V321.364H59.6088ZM56.8048 319.534H57.9781V326.812C57.9781 327.144 58.0261 327.393 58.1222 327.558C58.2217 327.721 58.3476 327.83 58.5001 327.886C58.6559 327.939 58.8199 327.966 58.9923 327.966C59.1215 327.966 59.2276 327.959 59.3105 327.946C59.3933 327.929 59.4596 327.916 59.5093 327.906L59.748 328.96C59.6684 328.99 59.5574 329.02 59.4149 329.05C59.2723 329.083 59.0917 329.099 58.873 329.099C58.5415 329.099 58.2167 329.028 57.8985 328.886C57.5837 328.743 57.3218 328.526 57.113 328.234C56.9075 327.943 56.8048 327.575 56.8048 327.131V319.534ZM62.2288 329.08C61.9835 329.08 61.7731 328.992 61.5974 328.816C61.4217 328.64 61.3339 328.43 61.3339 328.185C61.3339 327.939 61.4217 327.729 61.5974 327.553C61.7731 327.378 61.9835 327.29 62.2288 327.29C62.474 327.29 62.6845 327.378 62.8602 327.553C63.0358 327.729 63.1237 327.939 63.1237 328.185C63.1237 328.347 63.0822 328.496 62.9994 328.632C62.9198 328.768 62.8121 328.877 62.6762 328.96C62.5436 329.04 62.3945 329.08 62.2288 329.08ZM69.3257 329V318.818H70.5587V327.906H75.2916V329H69.3257ZM80.2433 329.159C79.5075 329.159 78.8728 328.997 78.3392 328.672C77.8089 328.344 77.3996 327.886 77.1112 327.3C76.8262 326.71 76.6837 326.024 76.6837 325.241C76.6837 324.459 76.8262 323.77 77.1112 323.173C77.3996 322.573 77.8006 322.106 78.3144 321.771C78.8314 321.433 79.4346 321.264 80.124 321.264C80.5218 321.264 80.9145 321.33 81.3023 321.463C81.6901 321.596 82.0431 321.811 82.3612 322.109C82.6794 322.404 82.933 322.795 83.1219 323.283C83.3108 323.77 83.4053 324.37 83.4053 325.082V325.58H77.5189V324.565H82.2121C82.2121 324.134 82.1259 323.75 81.9536 323.412C81.7845 323.074 81.5426 322.807 81.2277 322.612C80.9162 322.416 80.5483 322.318 80.124 322.318C79.6567 322.318 79.2523 322.434 78.911 322.666C78.5729 322.895 78.3127 323.193 78.1304 323.561C77.9481 323.929 77.857 324.323 77.857 324.744V325.42C77.857 325.997 77.9564 326.486 78.1553 326.887C78.3575 327.285 78.6375 327.588 78.9955 327.797C79.3534 328.002 79.7694 328.105 80.2433 328.105C80.5516 328.105 80.83 328.062 81.0786 327.976C81.3305 327.886 81.5476 327.754 81.7298 327.578C81.9121 327.399 82.053 327.177 82.1524 326.912L83.286 327.23C83.1666 327.615 82.9661 327.953 82.6844 328.244C82.4027 328.533 82.0547 328.758 81.6404 328.92C81.2261 329.08 80.7604 329.159 80.2433 329.159ZM88.5111 321.364V322.358H84.5537V321.364H88.5111ZM85.7071 319.534H86.8804V326.812C86.8804 327.144 86.9285 327.393 87.0246 327.558C87.124 327.721 87.25 327.83 87.4024 327.886C87.5582 327.939 87.7223 327.966 87.8946 327.966C88.0239 327.966 88.1299 327.959 88.2128 327.946C88.2957 327.929 88.3619 327.916 88.4117 327.906L88.6503 328.96C88.5708 328.99 88.4597 329.02 88.3172 329.05C88.1747 329.083 87.9941 329.099 87.7753 329.099C87.4439 329.099 87.1191 329.028 86.8009 328.886C86.486 328.743 86.2242 328.526 86.0154 328.234C85.8099 327.943 85.7071 327.575 85.7071 327.131V319.534ZM91.7066 318.818V319.713C91.7066 319.985 91.6569 320.275 91.5574 320.583C91.4613 320.888 91.3188 321.185 91.1299 321.473C90.9443 321.758 90.7189 322.007 90.4537 322.219L89.8174 321.702C90.0262 321.403 90.2068 321.094 90.3593 320.772C90.5151 320.447 90.593 320.101 90.593 319.733V318.818H91.7066ZM97.5855 323.074L96.5315 323.372C96.4652 323.196 96.3675 323.026 96.2382 322.86C96.1122 322.691 95.9399 322.552 95.7211 322.442C95.5024 322.333 95.2223 322.278 94.8809 322.278C94.4136 322.278 94.0242 322.386 93.7126 322.602C93.4044 322.814 93.2503 323.084 93.2503 323.412C93.2503 323.704 93.3563 323.934 93.5684 324.103C93.7806 324.272 94.112 324.413 94.5628 324.526L95.6963 324.804C96.3791 324.97 96.8878 325.223 97.2226 325.565C97.5573 325.903 97.7247 326.339 97.7247 326.872C97.7247 327.31 97.5988 327.701 97.3469 328.045C97.0983 328.39 96.7503 328.662 96.3028 328.861C95.8554 329.06 95.335 329.159 94.7417 329.159C93.9629 329.159 93.3182 328.99 92.8078 328.652C92.2974 328.314 91.9742 327.82 91.8383 327.17L92.952 326.892C93.058 327.303 93.2586 327.611 93.5535 327.817C93.8518 328.022 94.2413 328.125 94.7219 328.125C95.2687 328.125 95.7029 328.009 96.0244 327.777C96.3492 327.542 96.5116 327.26 96.5116 326.932C96.5116 326.667 96.4188 326.445 96.2332 326.266C96.0476 326.083 95.7626 325.947 95.3781 325.858L94.1054 325.56C93.406 325.394 92.8923 325.137 92.5642 324.789C92.2394 324.438 92.077 323.999 92.077 323.472C92.077 323.041 92.1979 322.66 92.4399 322.328C92.6852 321.997 93.0183 321.737 93.4392 321.548C93.8634 321.359 94.344 321.264 94.8809 321.264C95.6366 321.264 96.2299 321.43 96.6608 321.761C97.095 322.093 97.4032 322.53 97.5855 323.074ZM106.511 332.023C105.944 332.023 105.457 331.95 105.049 331.804C104.641 331.661 104.302 331.473 104.03 331.237C103.761 331.005 103.548 330.757 103.389 330.491L104.323 329.835C104.429 329.974 104.564 330.134 104.726 330.312C104.888 330.495 105.11 330.652 105.392 330.785C105.677 330.921 106.05 330.989 106.511 330.989C107.127 330.989 107.636 330.839 108.037 330.541C108.438 330.243 108.639 329.776 108.639 329.139V327.588H108.539C108.453 327.727 108.33 327.9 108.171 328.105C108.015 328.307 107.79 328.488 107.495 328.647C107.203 328.803 106.809 328.881 106.312 328.881C105.695 328.881 105.142 328.735 104.651 328.443C104.164 328.152 103.778 327.727 103.493 327.17C103.211 326.614 103.07 325.937 103.07 325.142C103.07 324.36 103.208 323.679 103.483 323.099C103.758 322.515 104.141 322.065 104.631 321.746C105.122 321.425 105.689 321.264 106.332 321.264C106.829 321.264 107.223 321.347 107.515 321.513C107.81 321.675 108.035 321.861 108.191 322.07C108.35 322.275 108.473 322.444 108.559 322.577H108.678V321.364H109.812V329.219C109.812 329.875 109.663 330.409 109.364 330.82C109.069 331.234 108.672 331.537 108.171 331.729C107.674 331.925 107.121 332.023 106.511 332.023ZM106.471 327.827C106.942 327.827 107.339 327.719 107.664 327.504C107.989 327.288 108.236 326.978 108.405 326.574C108.574 326.17 108.658 325.686 108.658 325.122C108.658 324.572 108.576 324.086 108.41 323.665C108.244 323.245 107.999 322.915 107.674 322.676C107.349 322.437 106.948 322.318 106.471 322.318C105.974 322.318 105.56 322.444 105.228 322.696C104.9 322.948 104.653 323.286 104.487 323.71C104.325 324.134 104.244 324.605 104.244 325.122C104.244 325.652 104.327 326.121 104.492 326.529C104.661 326.933 104.91 327.252 105.238 327.484C105.569 327.712 105.98 327.827 106.471 327.827ZM115.062 329.159C114.372 329.159 113.768 328.995 113.247 328.667C112.73 328.339 112.326 327.88 112.034 327.29C111.746 326.7 111.602 326.01 111.602 325.222C111.602 324.426 111.746 323.732 112.034 323.138C112.326 322.545 112.73 322.085 113.247 321.756C113.768 321.428 114.372 321.264 115.062 321.264C115.751 321.264 116.354 321.428 116.872 321.756C117.392 322.085 117.796 322.545 118.085 323.138C118.376 323.732 118.522 324.426 118.522 325.222C118.522 326.01 118.376 326.7 118.085 327.29C117.796 327.88 117.392 328.339 116.872 328.667C116.354 328.995 115.751 329.159 115.062 329.159ZM115.062 328.105C115.586 328.105 116.016 327.971 116.354 327.702C116.693 327.434 116.943 327.081 117.105 326.643C117.268 326.206 117.349 325.732 117.349 325.222C117.349 324.711 117.268 324.236 117.105 323.795C116.943 323.354 116.693 322.998 116.354 322.726C116.016 322.454 115.586 322.318 115.062 322.318C114.538 322.318 114.107 322.454 113.769 322.726C113.431 322.998 113.181 323.354 113.019 323.795C112.856 324.236 112.775 324.711 112.775 325.222C112.775 325.732 112.856 326.206 113.019 326.643C113.181 327.081 113.431 327.434 113.769 327.702C114.107 327.971 114.538 328.105 115.062 328.105ZM124.41 329V318.818H125.583V322.577H125.682C125.769 322.444 125.888 322.275 126.04 322.07C126.196 321.861 126.418 321.675 126.707 321.513C126.998 321.347 127.393 321.264 127.89 321.264C128.533 321.264 129.1 321.425 129.59 321.746C130.081 322.068 130.463 322.524 130.739 323.114C131.014 323.704 131.151 324.4 131.151 325.202C131.151 326.01 131.014 326.711 130.739 327.305C130.463 327.895 130.082 328.352 129.595 328.677C129.108 328.998 128.546 329.159 127.91 329.159C127.419 329.159 127.026 329.078 126.731 328.915C126.436 328.75 126.209 328.562 126.05 328.354C125.891 328.142 125.769 327.966 125.682 327.827H125.543V329H124.41ZM125.563 325.182C125.563 325.759 125.648 326.267 125.817 326.708C125.986 327.146 126.233 327.489 126.557 327.737C126.882 327.982 127.28 328.105 127.751 328.105C128.241 328.105 128.65 327.976 128.979 327.717C129.31 327.455 129.559 327.104 129.724 326.663C129.893 326.219 129.978 325.725 129.978 325.182C129.978 324.645 129.895 324.161 129.729 323.73C129.567 323.296 129.32 322.953 128.989 322.701C128.66 322.446 128.248 322.318 127.751 322.318C127.273 322.318 126.872 322.439 126.547 322.681C126.223 322.92 125.977 323.254 125.812 323.685C125.646 324.113 125.563 324.612 125.563 325.182ZM137.758 325.878V321.364H138.932V329H137.758V327.707H137.679C137.5 328.095 137.222 328.425 136.844 328.697C136.466 328.965 135.989 329.099 135.412 329.099C134.935 329.099 134.51 328.995 134.139 328.786C133.768 328.574 133.476 328.256 133.264 327.832C133.052 327.404 132.946 326.866 132.946 326.216V321.364H134.119V326.136C134.119 326.693 134.275 327.137 134.587 327.469C134.901 327.8 135.302 327.966 135.79 327.966C136.081 327.966 136.378 327.891 136.68 327.742C136.985 327.593 137.24 327.364 137.445 327.056C137.654 326.748 137.758 326.355 137.758 325.878ZM141.836 331.864C141.638 331.864 141.46 331.847 141.304 331.814C141.149 331.784 141.041 331.754 140.981 331.724L141.28 330.69C141.565 330.763 141.816 330.79 142.035 330.77C142.254 330.75 142.448 330.652 142.617 330.477C142.789 330.304 142.947 330.024 143.089 329.636L143.308 329.04L140.484 321.364H141.757L143.865 327.449H143.944L146.052 321.364H147.325L144.084 330.114C143.938 330.508 143.757 330.835 143.542 331.093C143.326 331.355 143.076 331.549 142.791 331.675C142.509 331.801 142.191 331.864 141.836 331.864ZM158.22 323.074L157.166 323.372C157.1 323.196 157.002 323.026 156.873 322.86C156.747 322.691 156.575 322.552 156.356 322.442C156.137 322.333 155.857 322.278 155.516 322.278C155.048 322.278 154.659 322.386 154.347 322.602C154.039 322.814 153.885 323.084 153.885 323.412C153.885 323.704 153.991 323.934 154.203 324.103C154.415 324.272 154.747 324.413 155.198 324.526L156.331 324.804C157.014 324.97 157.523 325.223 157.857 325.565C158.192 325.903 158.359 326.339 158.359 326.872C158.359 327.31 158.234 327.701 157.982 328.045C157.733 328.39 157.385 328.662 156.938 328.861C156.49 329.06 155.97 329.159 155.377 329.159C154.598 329.159 153.953 328.99 153.443 328.652C152.932 328.314 152.609 327.82 152.473 327.17L153.587 326.892C153.693 327.303 153.893 327.611 154.188 327.817C154.487 328.022 154.876 328.125 155.357 328.125C155.903 328.125 156.338 328.009 156.659 327.777C156.984 327.542 157.146 327.26 157.146 326.932C157.146 326.667 157.054 326.445 156.868 326.266C156.682 326.083 156.397 325.947 156.013 325.858L154.74 325.56C154.041 325.394 153.527 325.137 153.199 324.789C152.874 324.438 152.712 323.999 152.712 323.472C152.712 323.041 152.833 322.66 153.075 322.328C153.32 321.997 153.653 321.737 154.074 321.548C154.498 321.359 154.979 321.264 155.516 321.264C156.271 321.264 156.865 321.43 157.296 321.761C157.73 322.093 158.038 322.53 158.22 323.074ZM163.228 329.159C162.539 329.159 161.934 328.995 161.413 328.667C160.896 328.339 160.492 327.88 160.2 327.29C159.912 326.7 159.768 326.01 159.768 325.222C159.768 324.426 159.912 323.732 160.2 323.138C160.492 322.545 160.896 322.085 161.413 321.756C161.934 321.428 162.539 321.264 163.228 321.264C163.917 321.264 164.521 321.428 165.038 321.756C165.558 322.085 165.962 322.545 166.251 323.138C166.542 323.732 166.688 324.426 166.688 325.222C166.688 326.01 166.542 326.7 166.251 327.29C165.962 327.88 165.558 328.339 165.038 328.667C164.521 328.995 163.917 329.159 163.228 329.159ZM163.228 328.105C163.752 328.105 164.182 327.971 164.521 327.702C164.859 327.434 165.109 327.081 165.271 326.643C165.434 326.206 165.515 325.732 165.515 325.222C165.515 324.711 165.434 324.236 165.271 323.795C165.109 323.354 164.859 322.998 164.521 322.726C164.182 322.454 163.752 322.318 163.228 322.318C162.704 322.318 162.273 322.454 161.935 322.726C161.597 322.998 161.347 323.354 161.185 323.795C161.022 324.236 160.941 324.711 160.941 325.222C160.941 325.732 161.022 326.206 161.185 326.643C161.347 327.081 161.597 327.434 161.935 327.702C162.273 327.971 162.704 328.105 163.228 328.105ZM168.479 329V321.364H169.613V322.557H169.712C169.871 322.149 170.128 321.833 170.483 321.607C170.837 321.379 171.263 321.264 171.76 321.264C172.264 321.264 172.683 321.379 173.018 321.607C173.356 321.833 173.62 322.149 173.809 322.557H173.888C174.084 322.162 174.377 321.849 174.768 321.617C175.159 321.382 175.628 321.264 176.175 321.264C176.858 321.264 177.416 321.478 177.851 321.906C178.285 322.33 178.502 322.991 178.502 323.889V329H177.329V323.889C177.329 323.326 177.174 322.923 176.866 322.681C176.558 322.439 176.195 322.318 175.777 322.318C175.241 322.318 174.825 322.481 174.53 322.805C174.235 323.127 174.087 323.535 174.087 324.028V329H172.894V323.77C172.894 323.336 172.753 322.986 172.471 322.721C172.19 322.452 171.827 322.318 171.383 322.318C171.078 322.318 170.793 322.399 170.527 322.562C170.266 322.724 170.053 322.95 169.891 323.238C169.732 323.523 169.652 323.853 169.652 324.227V329H168.479ZM183.849 329.159C183.113 329.159 182.478 328.997 181.945 328.672C181.414 328.344 181.005 327.886 180.717 327.3C180.432 326.71 180.289 326.024 180.289 325.241C180.289 324.459 180.432 323.77 180.717 323.173C181.005 322.573 181.406 322.106 181.92 321.771C182.437 321.433 183.04 321.264 183.729 321.264C184.127 321.264 184.52 321.33 184.908 321.463C185.296 321.596 185.649 321.811 185.967 322.109C186.285 322.404 186.538 322.795 186.727 323.283C186.916 323.77 187.011 324.37 187.011 325.082V325.58H181.124V324.565H185.818C185.818 324.134 185.731 323.75 185.559 323.412C185.39 323.074 185.148 322.807 184.833 322.612C184.522 322.416 184.154 322.318 183.729 322.318C183.262 322.318 182.858 322.434 182.516 322.666C182.178 322.895 181.918 323.193 181.736 323.561C181.554 323.929 181.462 324.323 181.462 324.744V325.42C181.462 325.997 181.562 326.486 181.761 326.887C181.963 327.285 182.243 327.588 182.601 327.797C182.959 328.002 183.375 328.105 183.849 328.105C184.157 328.105 184.435 328.062 184.684 327.976C184.936 327.886 185.153 327.754 185.335 327.578C185.518 327.399 185.658 327.177 185.758 326.912L186.891 327.23C186.772 327.615 186.572 327.953 186.29 328.244C186.008 328.533 185.66 328.758 185.246 328.92C184.832 329.08 184.366 329.159 183.849 329.159ZM192.117 321.364V322.358H188.159V321.364H192.117ZM189.313 319.534H190.486V326.812C190.486 327.144 190.534 327.393 190.63 327.558C190.729 327.721 190.855 327.83 191.008 327.886C191.164 327.939 191.328 327.966 191.5 327.966C191.629 327.966 191.735 327.959 191.818 327.946C191.901 327.929 191.967 327.916 192.017 327.906L192.256 328.96C192.176 328.99 192.065 329.02 191.923 329.05C191.78 329.083 191.6 329.099 191.381 329.099C191.049 329.099 190.725 329.028 190.406 328.886C190.091 328.743 189.83 328.526 189.621 328.234C189.415 327.943 189.313 327.575 189.313 327.131V319.534ZM195.219 324.406V329H194.046V318.818H195.219V322.557H195.318C195.497 322.162 195.766 321.849 196.124 321.617C196.485 321.382 196.966 321.264 197.565 321.264C198.086 321.264 198.542 321.369 198.933 321.577C199.324 321.783 199.627 322.099 199.842 322.527C200.061 322.951 200.171 323.491 200.171 324.148V329H198.997V324.227C198.997 323.621 198.84 323.152 198.525 322.82C198.213 322.486 197.781 322.318 197.227 322.318C196.843 322.318 196.498 322.399 196.193 322.562C195.892 322.724 195.653 322.961 195.477 323.273C195.305 323.584 195.219 323.962 195.219 324.406ZM202.317 329V321.364H203.49V329H202.317ZM202.914 320.091C202.685 320.091 202.488 320.013 202.322 319.857C202.16 319.701 202.078 319.514 202.078 319.295C202.078 319.077 202.16 318.889 202.322 318.734C202.488 318.578 202.685 318.5 202.914 318.5C203.142 318.5 203.338 318.578 203.5 318.734C203.666 318.889 203.749 319.077 203.749 319.295C203.749 319.514 203.666 319.701 203.5 319.857C203.338 320.013 203.142 320.091 202.914 320.091ZM206.813 324.406V329H205.639V321.364H206.773V322.557H206.872C207.051 322.169 207.323 321.857 207.688 321.622C208.052 321.384 208.523 321.264 209.1 321.264C209.617 321.264 210.069 321.37 210.457 321.582C210.845 321.791 211.146 322.109 211.362 322.537C211.577 322.961 211.685 323.498 211.685 324.148V329H210.511V324.227C210.511 323.627 210.356 323.16 210.044 322.825C209.733 322.487 209.305 322.318 208.761 322.318C208.387 322.318 208.052 322.399 207.757 322.562C207.466 322.724 207.235 322.961 207.066 323.273C206.897 323.584 206.813 323.962 206.813 324.406ZM216.911 332.023C216.344 332.023 215.857 331.95 215.449 331.804C215.042 331.661 214.702 331.473 214.43 331.237C214.162 331.005 213.948 330.757 213.789 330.491L214.724 329.835C214.83 329.974 214.964 330.134 215.126 330.312C215.289 330.495 215.511 330.652 215.793 330.785C216.078 330.921 216.45 330.989 216.911 330.989C217.528 330.989 218.036 330.839 218.437 330.541C218.838 330.243 219.039 329.776 219.039 329.139V327.588H218.94C218.853 327.727 218.731 327.9 218.572 328.105C218.416 328.307 218.19 328.488 217.896 328.647C217.604 328.803 217.209 328.881 216.712 328.881C216.096 328.881 215.542 328.735 215.052 328.443C214.565 328.152 214.178 327.727 213.893 327.17C213.612 326.614 213.471 325.937 213.471 325.142C213.471 324.36 213.608 323.679 213.883 323.099C214.159 322.515 214.541 322.065 215.032 321.746C215.522 321.425 216.089 321.264 216.732 321.264C217.229 321.264 217.624 321.347 217.915 321.513C218.21 321.675 218.436 321.861 218.592 322.07C218.751 322.275 218.873 322.444 218.959 322.577H219.079V321.364H220.212V329.219C220.212 329.875 220.063 330.409 219.765 330.82C219.47 331.234 219.072 331.537 218.572 331.729C218.074 331.925 217.521 332.023 216.911 332.023ZM216.871 327.827C217.342 327.827 217.74 327.719 218.065 327.504C218.389 327.288 218.636 326.978 218.805 326.574C218.974 326.17 219.059 325.686 219.059 325.122C219.059 324.572 218.976 324.086 218.81 323.665C218.645 323.245 218.399 322.915 218.074 322.676C217.75 322.437 217.349 322.318 216.871 322.318C216.374 322.318 215.96 322.444 215.628 322.696C215.3 322.948 215.053 323.286 214.888 323.71C214.725 324.134 214.644 324.605 214.644 325.122C214.644 325.652 214.727 326.121 214.893 326.529C215.062 326.933 215.31 327.252 215.638 327.484C215.97 327.712 216.381 327.827 216.871 327.827ZM223.911 318.818L223.812 326.136H222.658L222.559 318.818H223.911ZM223.235 329.08C222.99 329.08 222.779 328.992 222.604 328.816C222.428 328.64 222.34 328.43 222.34 328.185C222.34 327.939 222.428 327.729 222.604 327.553C222.779 327.378 222.99 327.29 223.235 327.29C223.48 327.29 223.691 327.378 223.866 327.553C224.042 327.729 224.13 327.939 224.13 328.185C224.13 328.347 224.088 328.496 224.006 328.632C223.926 328.768 223.818 328.877 223.682 328.96C223.55 329.04 223.401 329.08 223.235 329.08Z" fill="#72777A"/>
<defs>
<clipPath id="clip0_2143_68547">
<rect width="200" height="242.792" fill="white" transform="translate(29)"/>
</clipPath>
</defs>
</svg>
