<svg width="32" height="32" viewBox="0 0 32 32" fill="none" xmlns="http://www.w3.org/2000/svg">
<g clip-path="url(#clip0_10_3307)">
<path d="M31.618 16.3682C31.618 15.2806 31.5298 14.1871 31.3417 13.1171H16.25V19.2784H24.8923C24.5337 21.2655 23.3814 23.0234 21.6941 24.1404V28.1382H26.85C29.8778 25.3515 31.618 21.2361 31.618 16.3682Z" fill="#4285F4"/>
<path d="M16.25 32.0012C20.5653 32.0012 24.2045 30.5843 26.8559 28.1386L21.7 24.1408C20.2655 25.1167 18.4135 25.6694 16.2559 25.6694C12.0817 25.6694 8.54251 22.8533 7.27262 19.0671H1.95203V23.1884C4.66818 28.5913 10.2004 32.0012 16.25 32.0012Z" fill="#34A853"/>
<path d="M7.26672 19.0672C6.5965 17.0801 6.5965 14.9283 7.26672 12.9412V8.81995H1.952C-0.317334 13.341 -0.317334 18.6675 1.952 23.1885L7.26672 19.0672Z" fill="#FBBC04"/>
<path d="M16.25 6.33288C18.5311 6.29761 20.7358 7.15596 22.3878 8.73156L26.9559 4.16349C24.0634 1.44734 20.2243 -0.0459547 16.25 0.00107822C10.2004 0.00107822 4.66818 3.41096 1.95203 8.81974L7.26674 12.941C8.53075 9.14897 12.0759 6.33288 16.25 6.33288Z" fill="#EA4335"/>
</g>
<defs>
<clipPath id="clip0_10_3307">
<rect width="32" height="32" fill="white"/>
</clipPath>
</defs>
</svg>
