<svg width="19" height="19" viewBox="0 0 19 19" fill="none" xmlns="http://www.w3.org/2000/svg">
<path fill-rule="evenodd" clip-rule="evenodd" d="M13.2929 9.70718L9.29286 5.70714C8.90233 5.31662 8.90233 4.68345 9.29286 4.29293L13.2929 0.292893C13.6834 -0.0976311 14.3166 -0.0976311 14.7071 0.292893L18.7071 4.29293C19.0977 4.68345 19.0977 5.31662 18.7071 5.70714L14.7071 9.70718C14.3166 10.0977 13.6834 10.0977 13.2929 9.70718ZM14 7.58586L16.5858 5.00004L14 2.41421L11.4142 5.00004L14 7.58586Z" fill="white"/>
<path fill-rule="evenodd" clip-rule="evenodd" d="M1 0.999978C0.447715 0.999978 0 1.44769 0 1.99998V7.99998C0 8.55226 0.447715 8.99998 1 8.99998H7C7.55228 8.99998 8 8.55226 8 7.99998V1.99998C8 1.44769 7.55228 0.999978 7 0.999978H1ZM2 6.99998V2.99998H6V6.99998H2Z" fill="white"/>
<path fill-rule="evenodd" clip-rule="evenodd" d="M1 11C0.447715 11 0 11.4477 0 12V18C0 18.5523 0.447715 19 1 19H7C7.55228 19 8 18.5523 8 18V12C8 11.4477 7.55228 11 7 11H1ZM2 17V13H6V17H2Z" fill="white"/>
<path fill-rule="evenodd" clip-rule="evenodd" d="M11 11C10.4477 11 10 11.4477 10 12V18C10 18.5523 10.4477 19 11 19H17C17.5523 19 18 18.5523 18 18V12C18 11.4477 17.5523 11 17 11H11ZM12 17V13H16V17H12Z" fill="white"/>
</svg>
